<svg xmlns="http://www.w3.org/2000/svg" width="1200" height="800" viewBox="0 0 1200 800">
  <defs>
    <linearGradient id="bg" x1="0" x2="1" y1="0" y2="1">
      <stop offset="0" stop-color="#fff3bf"/>
      <stop offset="1" stop-color="#d0ebff"/>
    </linearGradient>
    <filter id="shadow" x="-20%" y="-20%" width="140%" height="140%">
      <feDropShadow dx="0" dy="12" stdDeviation="12" flood-color="#000" flood-opacity="0.22"/>
    </filter>
  </defs>
  <rect width="1200" height="800" fill="url(#bg)"/>
  <rect x="60" y="70" width="1080" height="660" rx="38" fill="#ffffff" opacity="0.38"/>
  <text x="80" y="115" font-family="Arial, sans-serif" font-size="42" font-weight="900" fill="#172033">출입구 개선 전</text>
  <text x="80" y="158" font-family="Arial, sans-serif" font-size="24" font-weight="700" fill="#536176">위험요소 3개를 클릭해서 찾아보세요</text>

<rect x="110" y="215" width="980" height="430" rx="24" fill="#f8fafc" filter="url(#shadow)"/>
<rect x="110" y="565" width="980" height="80" rx="0" fill="#d8b894"/>
<line x1="110" y1="565" x2="1090" y2="565" stroke="#9a744d" stroke-width="5"/>
<rect x="475" y="250" width="240" height="315" rx="12" fill="#8d6e63"/>
<circle cx="675" cy="410" r="10" fill="#ffdf5d"/>
<rect x="210" y="500" width="145" height="65" rx="16" fill="#c08457"/>
<rect x="665" y="132" width="120" height="58" rx="29" fill="#ffd84d" opacity=".35"/>
<rect x="500" y="610" width="210" height="38" rx="6" fill="#7c5c45"/>
<circle cx="865" cy="150" r="42" fill="#ff4d4d" opacity=".82"/><text x="865" y="163" text-anchor="middle" font-family="Arial" font-size="42" font-weight="900" fill="#fff">!</text>
<circle cx="602" cy="610" r="42" fill="#ff4d4d" opacity=".82"/><text x="602" y="624" text-anchor="middle" font-family="Arial" font-size="42" font-weight="900" fill="#fff">!</text>
<circle cx="320" cy="595" r="42" fill="#ff4d4d" opacity=".82"/><text x="320" y="609" text-anchor="middle" font-family="Arial" font-size="42" font-weight="900" fill="#fff">!</text>
</svg>